<svg width="1763" height="380" viewBox="0 0 1763 380" fill="none" xmlns="http://www.w3.org/2000/svg">
  <rect width="1763" height="380" />
  <rect x="306.932" y="23.2314" width="91.2664" height="380" rx="15"
    transform="rotate(45 306.932 23.2314)" fill="#FF6895" fill-opacity="0.8" />
  <rect x="35.9082" y="89.2456" width="91.2664" height="380" rx="15"
    transform="rotate(-45 35.9082 89.2456)" fill="#908AE6" fill-opacity="0.8" />
  <rect x="156.877" width="91.2664" height="380" rx="15" fill="#62BCC5" fill-opacity="0.8" />
  <rect x="15" y="235.633" width="91.2664" height="380" rx="15" transform="rotate(-90 15 235.633)"
    fill="#F9B45A" fill-opacity="0.8" />
  <path
    d="M466.8 163.84H492.72V279.36C491.653 279.787 490.053 280.213 487.92 280.64C485.787 281.28 483.44 281.6 480.88 281.6C476.187 281.6 472.667 280.64 470.32 278.72C467.973 276.8 466.8 273.813 466.8 269.76V163.84ZM492.72 185.28H466.8V86.08C467.867 85.6533 469.467 85.2267 471.6 84.8C473.947 84.16 476.4 83.84 478.96 83.84C483.653 83.84 487.067 84.8 489.2 86.72C491.547 88.4267 492.72 91.4133 492.72 95.68V185.28ZM673.75 182.4V215.04H648.15V183.68C648.15 171.733 644.737 162.987 637.91 157.44C631.297 151.893 622.337 149.12 611.03 149.12C602.497 149.12 594.923 150.187 588.31 152.32C581.697 154.453 576.043 156.907 571.35 159.68V215.04H545.75V160.96C545.75 156.48 546.603 152.853 548.31 150.08C550.23 147.093 553.43 144.213 557.91 141.44C563.457 138.24 570.817 135.253 579.99 132.48C589.163 129.493 599.51 128 611.03 128C630.443 128 645.697 132.48 656.79 141.44C668.097 150.187 673.75 163.84 673.75 182.4ZM545.75 197.44H571.35V279.36C570.283 279.787 568.683 280.213 566.55 280.64C564.417 281.28 562.07 281.6 559.51 281.6C555.03 281.6 551.617 280.747 549.27 279.04C546.923 277.12 545.75 274.133 545.75 270.08V197.44ZM648.15 197.44H673.75V279.36C672.683 279.787 670.977 280.213 668.63 280.64C666.497 281.28 664.257 281.6 661.91 281.6C657.217 281.6 653.697 280.747 651.35 279.04C649.217 277.12 648.15 274.133 648.15 270.08V197.44ZM822.488 254.72V147.2L848.088 146.88V255.68C848.088 259.733 847.128 263.04 845.208 265.6C843.501 267.947 840.728 270.293 836.888 272.64C832.621 275.413 826.541 277.973 818.648 280.32C810.754 282.88 801.688 284.16 791.448 284.16C776.088 284.16 762.541 281.493 750.808 276.16C739.074 270.827 729.901 262.507 723.288 251.2C716.674 239.68 713.368 224.853 713.368 206.72C713.368 188.16 716.568 173.12 722.968 161.6C729.581 150.08 738.434 141.653 749.528 136.32C760.621 130.773 772.781 128 786.008 128C794.328 128 802.221 129.173 809.688 131.52C817.154 133.867 823.021 136.747 827.288 140.16V163.84C823.234 159.787 817.901 156.373 811.288 153.6C804.888 150.613 797.314 149.12 788.568 149.12C779.821 149.12 771.714 151.04 764.248 154.88C756.781 158.507 750.808 164.587 746.328 173.12C741.848 181.653 739.608 193.067 739.608 207.36C739.608 226.773 744.301 240.96 753.688 249.92C763.074 258.667 775.554 263.04 791.128 263.04C798.594 263.04 804.674 262.293 809.368 260.8C814.274 259.093 818.648 257.067 822.488 254.72ZM848.088 153.28L822.488 153.6V72.64C823.554 72.2133 825.154 71.7867 827.288 71.36C829.634 70.72 831.981 70.4 834.328 70.4C839.021 70.4 842.434 71.36 844.568 73.28C846.914 74.9867 848.088 77.8667 848.088 81.92V153.28ZM894.448 85.44C894.448 80.96 896.048 77.2267 899.248 74.24C902.448 71.04 906.394 69.44 911.088 69.44C915.994 69.44 919.941 71.04 922.928 74.24C925.914 77.2267 927.408 80.96 927.408 85.44C927.408 89.92 925.914 93.76 922.928 96.96C919.941 99.9467 915.994 101.44 911.088 101.44C906.394 101.44 902.448 99.9467 899.248 96.96C896.048 93.76 894.448 89.92 894.448 85.44ZM898.288 195.52H923.888V279.36C922.821 279.787 921.221 280.213 919.088 280.64C916.954 281.28 914.608 281.6 912.048 281.6C907.568 281.6 904.154 280.747 901.808 279.04C899.461 277.12 898.288 274.133 898.288 270.08V195.52ZM923.888 208H898.288V132.8C899.354 132.373 900.954 131.947 903.088 131.52C905.434 130.88 907.888 130.56 910.448 130.56C914.928 130.56 918.234 131.52 920.368 133.44C922.714 135.147 923.888 138.133 923.888 142.4V208ZM983.155 222.4L981.875 202.24L1078.52 189.12C1077.66 177.387 1073.61 167.787 1066.36 160.32C1059.1 152.64 1049.08 148.8 1036.28 148.8C1023.05 148.8 1012.06 153.6 1003.32 163.2C994.782 172.587 990.515 186.133 990.515 203.84V210.88C992.008 227.947 997.555 240.96 1007.16 249.92C1016.97 258.667 1030.3 263.04 1047.16 263.04C1056.12 263.04 1064.22 261.547 1071.48 258.56C1078.73 255.573 1084.49 252.373 1088.76 248.96C1091.1 250.453 1092.92 252.267 1094.2 254.4C1095.69 256.32 1096.44 258.56 1096.44 261.12C1096.44 265.173 1094.09 269.013 1089.4 272.64C1084.92 276.053 1078.84 278.827 1071.16 280.96C1063.69 283.093 1055.26 284.16 1045.88 284.16C1029.45 284.16 1015.16 281.173 1003 275.2C991.048 269.227 981.768 260.373 975.155 248.64C968.755 236.693 965.555 222.187 965.555 205.12C965.555 192.96 967.262 182.187 970.675 172.8C974.302 163.2 979.208 155.093 985.395 148.48C991.795 141.867 999.368 136.853 1008.12 133.44C1016.86 129.813 1026.36 128 1036.6 128C1049.61 128 1061.02 130.773 1070.84 136.32C1080.86 141.867 1088.65 149.653 1094.2 159.68C1099.96 169.493 1102.84 180.8 1102.84 193.6C1102.84 198.293 1101.77 201.707 1099.64 203.84C1097.5 205.76 1094.52 206.933 1090.68 207.36L983.155 222.4ZM1205.73 128C1218.96 128 1230.8 130.88 1241.25 136.64C1251.92 142.187 1260.24 150.72 1266.21 162.24C1272.4 173.76 1275.49 188.373 1275.49 206.08C1275.49 224 1272.29 238.72 1265.89 250.24C1259.71 261.76 1251.07 270.293 1239.97 275.84C1228.88 281.387 1215.97 284.16 1201.25 284.16C1190.8 284.16 1181.31 282.88 1172.77 280.32C1164.45 277.76 1157.63 274.987 1152.29 272C1147.81 269.013 1144.72 266.24 1143.01 263.68C1141.31 261.12 1140.45 257.6 1140.45 253.12V146.56H1166.05V253.12C1169.25 255.467 1173.95 257.707 1180.13 259.84C1186.32 261.973 1193.36 263.04 1201.25 263.04C1215.76 263.04 1227.39 258.453 1236.13 249.28C1245.09 240.107 1249.57 225.707 1249.57 206.08C1249.57 186.24 1245.09 171.84 1236.13 162.88C1227.17 153.707 1215.76 149.12 1201.89 149.12C1193.36 149.12 1185.79 150.827 1179.17 154.24C1172.56 157.44 1167.12 161.173 1162.85 165.44L1158.05 144.64C1162.75 141.013 1169.04 137.387 1176.93 133.76C1184.83 129.92 1194.43 128 1205.73 128ZM1166.05 151.68H1140.45V72.64C1141.52 72.2133 1143.12 71.7867 1145.25 71.36C1147.6 70.72 1150.05 70.4 1152.61 70.4C1157.09 70.4 1160.4 71.36 1162.53 73.28C1164.88 74.9867 1166.05 77.8667 1166.05 81.92V151.68ZM1368.86 263.36C1377.82 263.36 1385.18 262.507 1390.94 260.8C1396.92 258.88 1401.18 257.067 1403.74 255.36V208.96L1364.06 213.12C1352.97 213.973 1344.76 216.427 1339.42 220.48C1334.09 224.533 1331.42 230.4 1331.42 238.08C1331.42 245.973 1334.52 252.16 1340.7 256.64C1347.1 261.12 1356.49 263.36 1368.86 263.36ZM1368.54 128C1387.1 128 1401.82 132.16 1412.7 140.48C1423.58 148.8 1429.02 161.92 1429.02 179.84V255.68C1429.02 260.373 1428.06 264 1426.14 266.56C1424.44 268.907 1421.77 271.147 1418.14 273.28C1413.02 276.053 1406.2 278.613 1397.66 280.96C1389.13 283.307 1379.53 284.48 1368.86 284.48C1348.81 284.48 1333.24 280.533 1322.14 272.64C1311.26 264.747 1305.82 253.333 1305.82 238.4C1305.82 224.533 1310.41 213.973 1319.58 206.72C1328.97 199.253 1341.88 194.773 1358.3 193.28L1403.74 188.8V179.84C1403.74 169.173 1400.54 161.387 1394.14 156.48C1387.74 151.573 1379.1 149.12 1368.22 149.12C1359.48 149.12 1351.05 150.4 1342.94 152.96C1335.05 155.52 1328.01 158.4 1321.82 161.6C1320.12 160.107 1318.52 158.4 1317.02 156.48C1315.74 154.347 1315.1 152.213 1315.1 150.08C1315.1 144.533 1318.2 140.267 1324.38 137.28C1330.14 134.293 1336.76 132.053 1344.22 130.56C1351.9 128.853 1360.01 128 1368.54 128ZM1580.07 240.64C1580.07 254.293 1575.06 264.96 1565.03 272.64C1555 280.32 1540.5 284.16 1521.51 284.16C1505.3 284.16 1492.07 281.707 1481.83 276.8C1471.59 271.68 1466.47 266.133 1466.47 260.16C1466.47 257.6 1467.11 255.147 1468.39 252.8C1469.88 250.24 1472.02 248.213 1474.79 246.72C1480.55 250.773 1487.27 254.507 1494.95 257.92C1502.63 261.333 1511.38 263.04 1521.19 263.04C1543.38 263.04 1554.47 255.573 1554.47 240.64C1554.47 234.453 1552.55 229.44 1548.71 225.6C1545.08 221.547 1539.64 218.667 1532.39 216.96L1505.83 209.92C1492.82 206.72 1483.32 201.813 1477.35 195.2C1471.38 188.373 1468.39 179.947 1468.39 169.92C1468.39 158.613 1472.98 148.8 1482.15 140.48C1491.32 132.16 1505.3 128 1524.07 128C1534.1 128 1542.84 129.067 1550.31 131.2C1557.78 133.12 1563.54 135.787 1567.59 139.2C1571.86 142.4 1573.99 145.92 1573.99 149.76C1573.99 152.533 1573.24 154.987 1571.75 157.12C1570.47 159.253 1568.66 160.853 1566.31 161.92C1563.75 160.213 1560.44 158.4 1556.39 156.48C1552.55 154.347 1547.96 152.64 1542.63 151.36C1537.3 149.867 1531.43 149.12 1525.03 149.12C1515.64 149.12 1508.07 150.933 1502.31 154.56C1496.55 158.187 1493.67 163.307 1493.67 169.92C1493.67 174.613 1495.27 178.773 1498.47 182.4C1501.88 185.813 1507.22 188.373 1514.47 190.08L1536.55 195.52C1551.06 198.933 1561.94 204.373 1569.19 211.84C1576.44 219.093 1580.07 228.693 1580.07 240.64ZM1629.72 222.4L1628.44 202.24L1725.08 189.12C1724.22 177.387 1720.17 167.787 1712.92 160.32C1705.66 152.64 1695.64 148.8 1682.84 148.8C1669.61 148.8 1658.62 153.6 1649.88 163.2C1641.34 172.587 1637.08 186.133 1637.08 203.84V210.88C1638.57 227.947 1644.12 240.96 1653.72 249.92C1663.53 258.667 1676.86 263.04 1693.72 263.04C1702.68 263.04 1710.78 261.547 1718.04 258.56C1725.29 255.573 1731.05 252.373 1735.32 248.96C1737.66 250.453 1739.48 252.267 1740.76 254.4C1742.25 256.32 1743 258.56 1743 261.12C1743 265.173 1740.65 269.013 1735.96 272.64C1731.48 276.053 1725.4 278.827 1717.72 280.96C1710.25 283.093 1701.82 284.16 1692.44 284.16C1676.01 284.16 1661.72 281.173 1649.56 275.2C1637.61 269.227 1628.33 260.373 1621.72 248.64C1615.32 236.693 1612.12 222.187 1612.12 205.12C1612.12 192.96 1613.82 182.187 1617.24 172.8C1620.86 163.2 1625.77 155.093 1631.96 148.48C1638.36 141.867 1645.93 136.853 1654.68 133.44C1663.42 129.813 1672.92 128 1683.16 128C1696.17 128 1707.58 130.773 1717.4 136.32C1727.42 141.867 1735.21 149.653 1740.76 159.68C1746.52 169.493 1749.4 180.8 1749.4 193.6C1749.4 198.293 1748.33 201.707 1746.2 203.84C1744.06 205.76 1741.08 206.933 1737.24 207.36L1629.72 222.4Z"
    fill="black" />
</svg>