<svg width="720" height="89" viewBox="0 0 720 89" fill="none" xmlns="http://www.w3.org/2000/svg">
<rect width="720" height="89" fill="#E5E5E5"/>
<rect x="-0.310547" y="0.0859375" width="720" height="89.91" fill="white"/>
<rect x="514" y="20" width="27" height="27" fill="#FD9803"/>
<rect x="296" y="38.3945" width="27" height="27" transform="rotate(-15.8959 296 38.3945)" fill="#52ADF5"/>
<rect x="551.527" y="61.4648" width="12" height="12" transform="rotate(-48.1429 551.527 61.4648)" fill="#CCDA3A"/>
<rect x="210.701" y="42" width="27" height="27" transform="rotate(46.8579 210.701 42)" fill="#CBD93B"/>
<rect x="125" y="-9" width="48" height="48" fill="#36C9DC"/>
<rect x="662.738" y="28" width="44" height="44" transform="rotate(14.1268 662.738 28)" fill="#3F51B4"/>
<rect x="391" y="58" width="13" height="13" fill="#4353B3"/>
<circle cx="608.5" cy="22.5" r="18.5" fill="#E72164"/>
<circle cx="250" cy="18" r="11" fill="#FD5823"/>
<circle cx="125.5" cy="71.5" r="7.5" fill="#9A2AB0"/>
<circle cx="19.5" cy="74.5" r="24.5" fill="#8BC24B"/>
<circle cx="444" cy="33" r="26" fill="#FB5A25"/>
<path d="M481 54L483.694 62.2918H492.413L485.359 67.4164L488.053 75.7082L481 70.5836L473.947 75.7082L476.641 67.4164L469.587 62.2918H478.306L481 54Z" fill="#8FC551"/>
<path d="M290 69L292.245 75.9098H299.511L293.633 80.1803L295.878 87.0902L290 82.8197L284.122 87.0902L286.367 80.1803L280.489 75.9098H287.755L290 69Z" fill="#FCE83D"/>
<path d="M5.09863 6.49902L12.6059 10.3242L18.5637 4.36637L17.2456 12.6882L24.7529 16.5134L16.431 17.8314L15.113 26.1533L11.2878 18.646L2.96598 19.9641L8.92377 14.0063L5.09863 6.49902Z" fill="#FBC00B"/>
<path d="M65.7537 32.4922L96.6351 46.1703L69.3488 66.0753L65.7537 32.4922Z" fill="#3F51B4"/>
<path d="M376.5 -15L393.387 14.25H359.613L376.5 -15Z" fill="#3D922F"/>
<path d="M622.499 62.9679L615.659 96.0431L590.435 73.582L622.499 62.9679Z" fill="#D9D9D9"/>
<path d="M714.018 -14.4614L734.951 12.0445L701.53 16.92L714.018 -14.4614Z" fill="#45C7FF"/>
</svg>
