<svg width="1763" height="380" viewBox="0 0 1763 380" fill="none" xmlns="http://www.w3.org/2000/svg">
  <rect width="1763" height="380" fill="transparent" />
  <rect x="306.932" y="23.2314" width="91.2664" height="380" rx="15"
    transform="rotate(45 306.932 23.2314)" fill="#FF6895" fill-opacity="0.8" />
  <rect x="35.9082" y="89.2456" width="91.2664" height="380" rx="15"
    transform="rotate(-45 35.9082 89.2456)" fill="#908AE6" fill-opacity="0.8" />
  <rect x="156.877" width="91.2664" height="380" rx="15" fill="#62BCC5" fill-opacity="0.8" />
  <rect x="15" y="235.633" width="91.2664" height="380" rx="15" transform="rotate(-90 15 235.633)"
    fill="#F9B45A" fill-opacity="0.8" />
  <path
    d="M466.76 84.44C466.76 79.96 468.36 76.2267 471.56 73.24C474.76 70.04 478.707 68.44 483.4 68.44C488.307 68.44 492.253 70.04 495.24 73.24C498.227 76.2267 499.72 79.96 499.72 84.44C499.72 88.92 498.227 92.76 495.24 95.96C492.253 98.9467 488.307 100.44 483.4 100.44C478.707 100.44 474.76 98.9467 471.56 95.96C468.36 92.76 466.76 88.92 466.76 84.44ZM470.6 194.52H496.2V278.36C495.133 278.787 493.533 279.213 491.4 279.64C489.267 280.28 486.92 280.6 484.36 280.6C479.88 280.6 476.467 279.747 474.12 278.04C471.773 276.12 470.6 273.133 470.6 269.08V194.52ZM496.2 207H470.6V131.8C471.667 131.373 473.267 130.947 475.4 130.52C477.747 129.88 480.2 129.56 482.76 129.56C487.24 129.56 490.547 130.52 492.68 132.44C495.027 134.147 496.2 137.133 496.2 141.4V207ZM674.188 181.4V214.04H648.588V182.68C648.588 170.733 645.174 161.987 638.348 156.44C631.734 150.893 622.774 148.12 611.468 148.12C602.934 148.12 595.361 149.187 588.748 151.32C582.134 153.453 576.481 155.907 571.788 158.68V214.04H546.188V159.96C546.188 155.48 547.041 151.853 548.748 149.08C550.668 146.093 553.868 143.213 558.348 140.44C563.894 137.24 571.254 134.253 580.428 131.48C589.601 128.493 599.948 127 611.468 127C630.881 127 646.134 131.48 657.228 140.44C668.534 149.187 674.188 162.84 674.188 181.4ZM546.188 196.44H571.788V278.36C570.721 278.787 569.121 279.213 566.988 279.64C564.854 280.28 562.508 280.6 559.948 280.6C555.468 280.6 552.054 279.747 549.708 278.04C547.361 276.12 546.188 273.133 546.188 269.08V196.44ZM648.588 196.44H674.188V278.36C673.121 278.787 671.414 279.213 669.068 279.64C666.934 280.28 664.694 280.6 662.348 280.6C657.654 280.6 654.134 279.747 651.788 278.04C649.654 276.12 648.588 273.133 648.588 269.08V196.44ZM822.925 253.72V146.2L848.525 145.88V254.68C848.525 258.733 847.565 262.04 845.645 264.6C843.938 266.947 841.165 269.293 837.325 271.64C833.058 274.413 826.978 276.973 819.085 279.32C811.192 281.88 802.125 283.16 791.885 283.16C776.525 283.16 762.978 280.493 751.245 275.16C739.512 269.827 730.338 261.507 723.725 250.2C717.112 238.68 713.805 223.853 713.805 205.72C713.805 187.16 717.005 172.12 723.405 160.6C730.018 149.08 738.872 140.653 749.965 135.32C761.058 129.773 773.218 127 786.445 127C794.765 127 802.658 128.173 810.125 130.52C817.592 132.867 823.458 135.747 827.725 139.16V162.84C823.672 158.787 818.338 155.373 811.725 152.6C805.325 149.613 797.752 148.12 789.005 148.12C780.258 148.12 772.152 150.04 764.685 153.88C757.218 157.507 751.245 163.587 746.765 172.12C742.285 180.653 740.045 192.067 740.045 206.36C740.045 225.773 744.738 239.96 754.125 248.92C763.512 257.667 775.992 262.04 791.565 262.04C799.032 262.04 805.112 261.293 809.805 259.8C814.712 258.093 819.085 256.067 822.925 253.72ZM848.525 152.28L822.925 152.6V71.64C823.992 71.2133 825.592 70.7867 827.725 70.36C830.072 69.72 832.418 69.4 834.765 69.4C839.458 69.4 842.872 70.36 845.005 72.28C847.352 73.9867 848.525 76.8667 848.525 80.92V152.28ZM894.885 84.44C894.885 79.96 896.485 76.2267 899.685 73.24C902.885 70.04 906.832 68.44 911.525 68.44C916.432 68.44 920.378 70.04 923.365 73.24C926.352 76.2267 927.845 79.96 927.845 84.44C927.845 88.92 926.352 92.76 923.365 95.96C920.378 98.9467 916.432 100.44 911.525 100.44C906.832 100.44 902.885 98.9467 899.685 95.96C896.485 92.76 894.885 88.92 894.885 84.44ZM898.725 194.52H924.325V278.36C923.258 278.787 921.658 279.213 919.525 279.64C917.392 280.28 915.045 280.6 912.485 280.6C908.005 280.6 904.592 279.747 902.245 278.04C899.898 276.12 898.725 273.133 898.725 269.08V194.52ZM924.325 207H898.725V131.8C899.792 131.373 901.392 130.947 903.525 130.52C905.872 129.88 908.325 129.56 910.885 129.56C915.365 129.56 918.672 130.52 920.805 132.44C923.152 134.147 924.325 137.133 924.325 141.4V207ZM983.593 221.4L982.313 201.24L1078.95 188.12C1078.1 176.387 1074.05 166.787 1066.79 159.32C1059.54 151.64 1049.51 147.8 1036.71 147.8C1023.49 147.8 1012.5 152.6 1003.75 162.2C995.219 171.587 990.953 185.133 990.953 202.84V209.88C992.446 226.947 997.993 239.96 1007.59 248.92C1017.41 257.667 1030.74 262.04 1047.59 262.04C1056.55 262.04 1064.66 260.547 1071.91 257.56C1079.17 254.573 1084.93 251.373 1089.19 247.96C1091.54 249.453 1093.35 251.267 1094.63 253.4C1096.13 255.32 1096.87 257.56 1096.87 260.12C1096.87 264.173 1094.53 268.013 1089.83 271.64C1085.35 275.053 1079.27 277.827 1071.59 279.96C1064.13 282.093 1055.7 283.16 1046.31 283.16C1029.89 283.16 1015.59 280.173 1003.43 274.2C991.486 268.227 982.206 259.373 975.593 247.64C969.193 235.693 965.993 221.187 965.993 204.12C965.993 191.96 967.699 181.187 971.113 171.8C974.739 162.2 979.646 154.093 985.833 147.48C992.233 140.867 999.806 135.853 1008.55 132.44C1017.3 128.813 1026.79 127 1037.03 127C1050.05 127 1061.46 129.773 1071.27 135.32C1081.3 140.867 1089.09 148.653 1094.63 158.68C1100.39 168.493 1103.27 179.8 1103.27 192.6C1103.27 197.293 1102.21 200.707 1100.07 202.84C1097.94 204.76 1094.95 205.933 1091.11 206.36L983.593 221.4ZM1206.17 127C1219.4 127 1231.24 129.88 1241.69 135.64C1252.36 141.187 1260.68 149.72 1266.65 161.24C1272.84 172.76 1275.93 187.373 1275.93 205.08C1275.93 223 1272.73 237.72 1266.33 249.24C1260.14 260.76 1251.5 269.293 1240.41 274.84C1229.32 280.387 1216.41 283.16 1201.69 283.16C1191.24 283.16 1181.74 281.88 1173.21 279.32C1164.89 276.76 1158.06 273.987 1152.73 271C1148.25 268.013 1145.16 265.24 1143.45 262.68C1141.74 260.12 1140.89 256.6 1140.89 252.12V145.56H1166.49V252.12C1169.69 254.467 1174.38 256.707 1180.57 258.84C1186.76 260.973 1193.8 262.04 1201.69 262.04C1216.2 262.04 1227.82 257.453 1236.57 248.28C1245.53 239.107 1250.01 224.707 1250.01 205.08C1250.01 185.24 1245.53 170.84 1236.57 161.88C1227.61 152.707 1216.2 148.12 1202.33 148.12C1193.8 148.12 1186.22 149.827 1179.61 153.24C1173 156.44 1167.56 160.173 1163.29 164.44L1158.49 143.64C1163.18 140.013 1169.48 136.387 1177.37 132.76C1185.26 128.92 1194.86 127 1206.17 127ZM1166.49 150.68H1140.89V71.64C1141.96 71.2133 1143.56 70.7867 1145.69 70.36C1148.04 69.72 1150.49 69.4 1153.05 69.4C1157.53 69.4 1160.84 70.36 1162.97 72.28C1165.32 73.9867 1166.49 76.8667 1166.49 80.92V150.68ZM1369.3 262.36C1378.26 262.36 1385.62 261.507 1391.38 259.8C1397.35 257.88 1401.62 256.067 1404.18 254.36V207.96L1364.5 212.12C1353.41 212.973 1345.19 215.427 1339.86 219.48C1334.53 223.533 1331.86 229.4 1331.86 237.08C1331.86 244.973 1334.95 251.16 1341.14 255.64C1347.54 260.12 1356.93 262.36 1369.3 262.36ZM1368.98 127C1387.54 127 1402.26 131.16 1413.14 139.48C1424.02 147.8 1429.46 160.92 1429.46 178.84V254.68C1429.46 259.373 1428.5 263 1426.58 265.56C1424.87 267.907 1422.21 270.147 1418.58 272.28C1413.46 275.053 1406.63 277.613 1398.1 279.96C1389.57 282.307 1379.97 283.48 1369.3 283.48C1349.25 283.48 1333.67 279.533 1322.58 271.64C1311.7 263.747 1306.26 252.333 1306.26 237.4C1306.26 223.533 1310.85 212.973 1320.02 205.72C1329.41 198.253 1342.31 193.773 1358.74 192.28L1404.18 187.8V178.84C1404.18 168.173 1400.98 160.387 1394.58 155.48C1388.18 150.573 1379.54 148.12 1368.66 148.12C1359.91 148.12 1351.49 149.4 1343.38 151.96C1335.49 154.52 1328.45 157.4 1322.26 160.6C1320.55 159.107 1318.95 157.4 1317.46 155.48C1316.18 153.347 1315.54 151.213 1315.54 149.08C1315.54 143.533 1318.63 139.267 1324.82 136.28C1330.58 133.293 1337.19 131.053 1344.66 129.56C1352.34 127.853 1360.45 127 1368.98 127ZM1580.51 239.64C1580.51 253.293 1575.49 263.96 1565.47 271.64C1555.44 279.32 1540.93 283.16 1521.95 283.16C1505.73 283.16 1492.51 280.707 1482.27 275.8C1472.03 270.68 1466.91 265.133 1466.91 259.16C1466.91 256.6 1467.55 254.147 1468.83 251.8C1470.32 249.24 1472.45 247.213 1475.23 245.72C1480.99 249.773 1487.71 253.507 1495.39 256.92C1503.07 260.333 1511.81 262.04 1521.63 262.04C1543.81 262.04 1554.91 254.573 1554.91 239.64C1554.91 233.453 1552.99 228.44 1549.15 224.6C1545.52 220.547 1540.08 217.667 1532.83 215.96L1506.27 208.92C1493.25 205.72 1483.76 200.813 1477.79 194.2C1471.81 187.373 1468.83 178.947 1468.83 168.92C1468.83 157.613 1473.41 147.8 1482.59 139.48C1491.76 131.16 1505.73 127 1524.51 127C1534.53 127 1543.28 128.067 1550.75 130.2C1558.21 132.12 1563.97 134.787 1568.03 138.2C1572.29 141.4 1574.43 144.92 1574.43 148.76C1574.43 151.533 1573.68 153.987 1572.19 156.12C1570.91 158.253 1569.09 159.853 1566.75 160.92C1564.19 159.213 1560.88 157.4 1556.83 155.48C1552.99 153.347 1548.4 151.64 1543.07 150.36C1537.73 148.867 1531.87 148.12 1525.47 148.12C1516.08 148.12 1508.51 149.933 1502.75 153.56C1496.99 157.187 1494.11 162.307 1494.11 168.92C1494.11 173.613 1495.71 177.773 1498.91 181.4C1502.32 184.813 1507.65 187.373 1514.91 189.08L1536.99 194.52C1551.49 197.933 1562.37 203.373 1569.63 210.84C1576.88 218.093 1580.51 227.693 1580.51 239.64ZM1630.16 221.4L1628.88 201.24L1725.52 188.12C1724.66 176.387 1720.61 166.787 1713.36 159.32C1706.1 151.64 1696.08 147.8 1683.28 147.8C1670.05 147.8 1659.06 152.6 1650.32 162.2C1641.78 171.587 1637.52 185.133 1637.52 202.84V209.88C1639.01 226.947 1644.56 239.96 1654.16 248.92C1663.97 257.667 1677.3 262.04 1694.16 262.04C1703.12 262.04 1711.22 260.547 1718.48 257.56C1725.73 254.573 1731.49 251.373 1735.76 247.96C1738.1 249.453 1739.92 251.267 1741.2 253.4C1742.69 255.32 1743.44 257.56 1743.44 260.12C1743.44 264.173 1741.09 268.013 1736.4 271.64C1731.92 275.053 1725.84 277.827 1718.16 279.96C1710.69 282.093 1702.26 283.16 1692.88 283.16C1676.45 283.16 1662.16 280.173 1650 274.2C1638.05 268.227 1628.77 259.373 1622.16 247.64C1615.76 235.693 1612.56 221.187 1612.56 204.12C1612.56 191.96 1614.26 181.187 1617.68 171.8C1621.3 162.2 1626.21 154.093 1632.4 147.48C1638.8 140.867 1646.37 135.853 1655.12 132.44C1663.86 128.813 1673.36 127 1683.6 127C1696.61 127 1708.02 129.773 1717.84 135.32C1727.86 140.867 1735.65 148.653 1741.2 158.68C1746.96 168.493 1749.84 179.8 1749.84 192.6C1749.84 197.293 1748.77 200.707 1746.64 202.84C1744.5 204.76 1741.52 205.933 1737.68 206.36L1630.16 221.4Z"
    fill="black" />
</svg>