<?xml version="1.0" standalone="no"?><!DOCTYPE svg PUBLIC "-//W3C//DTD SVG 1.1//EN" "http://www.w3.org/Graphics/SVG/1.1/DTD/svg11.dtd"><svg t="1632667911399" class="icon" viewBox="0 0 1024 1024" version="1.1" xmlns="http://www.w3.org/2000/svg" p-id="11421" xmlns:xlink="http://www.w3.org/1999/xlink" width="200" height="200"><defs><style type="text/css"></style></defs><path d="M511.771284 383.80557a127.93519 127.93519 0 1 0 127.93519 127.935189 128.06481 128.06481 0 0 0-127.93519-127.935189z m0 204.670379a76.73519 76.73519 0 1 1 76.73519-76.73519 76.73519 76.73519 0 0 1-76.73519 76.73519z" fill="#1890ff" p-id="11422"></path><path d="M907.501917 504.352405c68.698734-94.363544 85.549367-182.505316 47.441013-248.482025-22.683544-38.886076-73.883544-85.938228-189.24557-85.938228a492.556962 492.556962 0 0 0-58.847595 4.147848C660.704955 66.36557 591.74698 0 511.771284 0S362.837613 66.36557 316.563183 174.08a490.483038 490.483038 0 0 0-58.717975-4.147848c-115.491646 0-166.691646 46.792911-189.245569 85.938228C30.491284 321.847089 47.341917 409.988861 115.911031 504.352405c1.814684 2.462785 3.888608 4.92557 5.832911 7.388354-70.254177 93.845063-93.067342 186.653165-53.144303 255.87038 22.553924 38.886076 73.753924 85.938228 189.245569 85.938228a490.483038 490.483038 0 0 0 58.717975-4.147848C362.837613 957.115949 431.795588 1024 511.771284 1024s148.933671-66.36557 195.078481-174.08a492.556962 492.556962 0 0 0 58.847595 4.147848c115.362025 0 166.562025-46.663291 189.24557-85.938228 39.923038-69.217215 16.980253-162.025316-53.144304-255.870379 2.333165-2.981266 4.018228-5.444051 5.703291-7.906836zM765.69736 221.132152c68.957975 0 121.454177 19.702278 144.915443 60.273418 27.868354 48.218734 9.591899 116.658228-42.126582 189.375189a810.645063 810.645063 0 0 0-110.306836-101.233417 825.292152 825.292152 0 0 0-32.534683-146.341266c13.869367-1.296203 27.220253-2.073924 40.052658-2.073924z m-151.526076 467.929114a1052.516456 1052.516456 0 0 1-102.4 51.848101 1037.998987 1037.998987 0 0 1-102.4-51.848101 992.891139 992.891139 0 0 1-95.659747-62.995443 991.854177 991.854177 0 0 1 0-228.650127 982.521519 982.521519 0 0 1 198.059747-114.454683 1022.314937 1022.314937 0 0 1 102.4 51.848101A1035.017722 1035.017722 0 0 1 709.701411 397.415696a1014.019241 1014.019241 0 0 1 6.610633 114.325063A1014.019241 1014.019241 0 0 1 709.701411 626.065823a1009.223291 1009.223291 0 0 1-95.530127 62.995443z m85.160506 6.999493a726.91038 726.91038 0 0 1-25.92405 96.307849 721.466329 721.466329 0 0 1-95.918988-25.924051c20.739241-10.24 41.348861-20.998481 61.828861-32.793924s40.700759-24.757468 60.014177-37.589874z m-253.666835 70.124557a732.22481 732.22481 0 0 1-95.918987 25.924051 707.596962 707.596962 0 0 1-25.924051-96.307848c19.313418 12.962025 38.886076 25.924051 59.625316 37.330633s41.08962 22.813165 62.217722 33.053164zM258.363689 581.994937a723.929114 723.929114 0 0 1-70.643038-70.254178 738.835443 738.835443 0 0 1 70.643038-70.254177c-1.425823 22.942785-2.462785 46.27443-2.462785 70.254177s1.036962 47.311392 2.462785 70.254178z m65.847089-254.574178a726.91038 726.91038 0 0 1 25.92405-96.307848 732.22481 732.22481 0 0 1 95.918988 25.924051c-20.739241 10.24-41.348861 20.998481-61.828861 32.923544s-40.83038 24.757468-60.014177 37.460253z m253.666835-70.124556a721.466329 721.466329 0 0 1 95.918988-25.924051 726.91038 726.91038 0 0 1 25.92405 96.307848c-19.183797-12.962025-38.886076-25.924051-59.625316-37.201013s-41.478481-22.942785-62.217722-33.182784z m187.301266 184.190379a738.835443 738.835443 0 0 1 70.643038 70.254177 723.929114 723.929114 0 0 1-70.643038 70.254178c1.425823-22.942785 2.462785-46.27443 2.462785-70.254178s-1.036962-47.311392-2.462785-70.254177zM511.771284 51.848101c55.736709 0 106.288608 50.292658 142.582279 131.694177a824.903291 824.903291 0 0 0-142.582279 44.718988 822.699747 822.699747 0 0 0-142.582278-44.718988C405.482677 101.492658 456.034575 51.848101 511.771284 51.848101zM113.448246 281.40557c23.461266-40.571139 75.827848-60.273418 144.915443-60.273418 12.962025 0 25.924051 0.777722 40.052658 2.073924a814.01519 814.01519 0 0 0-32.534683 146.341266 819.848101 819.848101 0 0 0-110.954937 101.233417C103.208246 398.323038 85.061411 329.624304 113.448246 281.40557zM257.845208 802.349367c-69.087595 0-121.454177-19.702278-144.915443-60.273418-27.868354-48.348354-9.591899-116.658228 42.385823-189.76405a820.885063 820.885063 0 0 0 110.047595 101.751898 815.052152 815.052152 0 0 0 32.534683 146.211646c-13.869367 1.296203-27.220253 2.073924-40.052658 2.073924zM511.771284 972.151899c-55.736709 0-106.288608-50.292658-142.582278-131.564557a834.75443 834.75443 0 0 0 142.582278-44.848608 837.087595 837.087595 0 0 0 142.582279 44.848608C618.059892 921.988861 567.119132 972.151899 511.771284 972.151899zM910.612803 742.075949c-23.461266 40.571139-75.957468 60.273418-144.915443 60.273418-12.962025 0-25.924051-0.777722-40.052658-2.073924a826.458734 826.458734 0 0 0 32.534683-146.211646 820.885063 820.885063 0 0 0 110.047595-101.751898c51.977722 72.587342 70.254177 141.415696 42.385823 189.76405z" fill="#1890ff" p-id="11423"></path></svg>