<svg width="212" height="211" viewBox="0 0 212 211" fill="none" xmlns="http://www.w3.org/2000/svg">
<path fill-rule="evenodd" clip-rule="evenodd" d="M167.274 104.154C165.052 100.813 162.711 97.461 160.153 94.0963C157.777 90.9751 155.219 87.8549 152.568 84.7395C148.363 79.7923 143.958 75.0175 139.363 70.4269C139.349 70.4134 139.337 70.3981 139.323 70.3847C134.701 65.7944 129.894 61.3942 124.912 57.195C121.788 54.5573 118.66 52.0149 115.532 49.654C112.146 47.1001 108.775 44.764 105.418 42.5463C98.0097 37.6497 90.6968 33.5362 83.6736 30.3672C80.0028 28.7111 76.4403 27.3779 72.9498 26.2203C54.9917 20.274 39.7456 20.9846 30.8313 29.8658C21.916 38.7451 21.1997 53.9308 27.171 71.8164C28.3323 75.2909 29.6738 78.839 31.3366 82.497C34.5165 89.4919 38.6485 96.7753 43.5631 104.154C45.7878 107.493 48.1257 110.845 50.688 114.211C53.0585 117.331 55.617 120.45 58.2694 123.565C62.4857 128.528 66.9044 133.317 71.5143 137.92C76.1234 142.51 80.9186 146.911 85.8879 151.111C88.9685 153.709 92.1186 156.224 95.3347 158.653C98.6263 161.132 101.993 163.51 105.431 165.784C112.746 170.636 120.035 174.738 127.144 177.975C128.777 178.719 130.414 179.489 132.025 180.138C134.003 180.936 135.914 181.595 137.817 182.235C145.48 184.811 152.545 186.158 158.782 186.158C167.614 186.158 174.844 183.58 180.006 178.439C188.921 169.561 189.636 154.376 183.666 136.492C182.505 133.015 181.163 129.467 179.504 125.811C176.321 118.816 172.192 111.533 167.274 104.154L167.274 104.154ZM171.87 170.336C166.506 175.679 155.942 176.126 142.402 171.725C140.359 171.061 138.34 170.324 136.349 169.517C134.831 168.905 133.284 168.177 131.746 167.474C126.418 165.04 120.979 162.128 115.48 158.683C112.128 156.582 108.764 154.256 105.404 151.816C100.433 148.209 95.4852 144.25 90.5966 139.977C86.8989 136.742 83.2357 133.385 79.6512 129.816C76.0063 126.184 72.6539 122.543 69.451 118.907C65.0792 113.947 61.1207 109.015 57.5726 104.154C55.0976 100.759 52.7635 97.3923 50.6874 94.0963C47.1557 88.4853 44.2568 83.0776 41.893 77.9174C40.1995 74.226 38.7573 70.656 37.6679 67.2874C33.2961 53.8114 33.7008 43.2158 38.9673 37.9687C41.8403 35.1073 46.3089 33.6804 51.9734 33.6804C56.6933 33.6804 62.2513 34.6899 68.4019 36.6688C71.7927 37.7595 75.3696 39.174 79.0855 40.8635C84.2513 43.2139 89.6865 46.1469 95.3049 49.654C98.6229 51.7265 101.998 53.9976 105.419 56.4713C110.563 60.1954 115.532 64.1549 120.308 68.3371C124.044 71.6025 127.672 74.988 131.186 78.4884C134.831 82.1207 138.184 85.7614 141.387 89.3974C145.758 94.357 149.717 99.289 153.264 104.154C155.744 107.549 158.078 110.914 160.153 114.211C163.686 119.821 166.581 125.231 168.949 130.389C170.642 134.082 172.08 137.652 173.174 141.022C177.542 154.495 177.137 165.09 171.869 170.336L171.87 170.336Z" fill="#746DE0" fill-opacity="0.8"/>
<path fill-rule="evenodd" clip-rule="evenodd" d="M105.536 42.1799C102.195 44.4017 98.8428 46.7425 95.478 49.3009C92.3569 51.6762 89.2367 54.2347 86.1212 56.8861C81.174 61.0909 76.3992 65.496 71.8086 70.0905C71.7951 70.1051 71.7798 70.1166 71.7665 70.131C67.1761 74.7522 62.7759 79.5599 58.5767 84.5421C55.939 87.6661 53.3966 90.7942 51.0357 93.9213C48.4818 97.3073 46.1457 100.679 43.928 104.035C39.0313 111.444 34.9178 118.757 31.7489 125.78C30.0928 129.451 28.7595 133.013 27.602 136.504C21.6557 154.462 22.3662 169.708 31.2474 178.622C40.1267 187.538 55.3123 188.254 73.198 182.283C76.6725 181.121 80.2206 179.78 83.8785 178.117C90.8735 174.937 98.1569 170.805 105.536 165.891C108.875 163.666 112.227 161.328 115.593 158.766C118.713 156.395 121.831 153.837 124.947 151.184C129.91 146.968 134.699 142.549 139.302 137.939C143.891 133.33 148.292 128.535 152.493 123.566C155.091 120.485 157.605 117.335 160.034 114.119C162.513 110.828 164.892 107.461 167.166 104.023C172.017 96.7081 176.119 89.4192 179.356 82.3096C180.101 80.6766 180.871 79.0397 181.519 77.4286C182.318 75.4513 182.977 73.5401 183.617 71.6366C186.193 63.9738 187.539 56.9093 187.539 50.6723C187.539 41.8395 184.962 34.6101 179.82 29.4481C170.943 20.5329 155.757 19.8175 137.874 25.7878C134.397 26.9491 130.849 28.2906 127.193 29.9496C120.198 33.1333 112.915 37.2615 105.536 42.1799H105.536ZM171.713 37.5837C177.056 42.948 177.504 53.5117 173.103 67.0519C172.438 69.0953 171.701 71.1144 170.895 73.1056C170.282 74.6227 169.555 76.1704 168.851 77.7086C166.417 83.0364 163.505 88.4755 160.06 93.9741C157.959 97.3265 155.633 100.69 153.193 104.051C149.586 109.021 145.627 113.969 141.354 118.858C138.119 122.555 134.762 126.218 131.193 129.803C127.561 133.448 123.92 136.8 120.284 140.003C115.325 144.375 110.393 148.333 105.531 151.881C102.136 154.356 98.7693 156.691 95.4734 158.767C89.8623 162.298 84.4547 165.197 79.2944 167.561C75.6031 169.254 72.033 170.697 68.6645 171.786C55.1884 176.158 44.5929 175.753 39.3457 170.487C36.4843 167.614 35.0575 163.145 35.0575 157.481C35.0575 152.761 36.067 147.203 38.0459 141.052C39.1366 137.661 40.5511 134.084 42.2406 130.369C44.591 125.203 47.524 119.767 51.0311 114.149C53.1036 110.831 55.3748 107.456 57.8484 104.035C61.5725 98.8906 65.5321 93.9221 69.7143 89.1456C72.9797 85.4101 76.3652 81.7822 79.8655 78.2677C83.4978 74.6226 87.1386 71.2702 90.7745 68.0673C95.7342 63.6965 100.666 59.737 105.531 56.1899C108.927 53.7101 112.291 51.3761 115.588 49.3009C121.198 45.7682 126.608 42.8732 131.766 40.5056C135.459 38.8121 139.03 37.3737 142.399 36.2805C155.872 31.9125 166.467 32.3172 171.713 37.5847L171.713 37.5837Z" fill="#FF427A" fill-opacity="0.8"/>
<path fill-rule="evenodd" clip-rule="evenodd" d="M61.5433 61.9906C60.7521 65.924 60.0368 69.9496 59.4667 74.1379C58.9392 78.0245 58.542 82.0399 58.2139 86.1177C57.689 92.5892 57.4276 99.0803 57.4303 105.575C57.431 105.595 57.4283 105.614 57.4291 105.634C57.4509 112.147 57.739 118.658 58.2927 125.15C58.6365 129.224 59.0507 133.234 59.5924 137.115C60.1808 141.315 60.9131 145.351 61.7182 149.292C63.4945 157.993 65.7568 166.073 68.4822 173.28C69.9068 177.047 71.4831 180.509 73.1327 183.795C81.6263 200.698 92.9094 210.977 105.493 211C118.075 211.025 129.32 200.794 137.745 183.925C139.38 180.647 140.941 177.189 142.351 173.427C145.049 166.232 147.277 158.16 149.02 149.467C149.808 145.533 150.525 141.51 151.093 137.318C151.623 133.436 152.019 129.421 152.347 125.343C152.875 118.852 153.136 112.341 153.131 105.827C153.118 99.3222 152.839 92.8197 152.296 86.3356C151.954 82.3205 151.505 78.3149 150.948 74.323C150.374 70.2426 149.675 66.1802 148.852 62.1414C147.11 53.5383 144.857 45.4837 142.118 38.1678C141.49 36.4863 140.877 34.7844 140.196 33.1867C139.363 31.2239 138.477 29.4066 137.584 27.6081C133.987 20.3683 129.944 14.4207 125.534 10.0105C119.288 3.76475 112.353 0.47551 105.068 0.460746C92.4864 0.433968 81.2427 10.666 72.8186 27.5333C71.1816 30.8127 69.6213 34.2702 68.2091 38.0285C65.5142 45.2258 63.2832 53.2951 61.5433 61.9905V61.9906ZM105.091 11.9429C112.662 11.9582 120.449 19.1111 126.911 31.7975C127.886 33.7124 128.793 35.661 129.63 37.6394C130.27 39.1451 130.85 40.7541 131.44 42.3395C133.486 47.8276 135.273 53.7327 136.725 60.0568C137.61 63.913 138.344 67.9362 138.995 72.0376C139.958 78.1028 140.658 84.401 141.093 90.8792C141.421 95.7813 141.637 100.745 141.648 105.804C141.657 110.949 141.453 115.894 141.147 120.73C140.731 127.328 140.043 133.615 139.114 139.561C138.463 143.712 137.733 147.743 136.871 151.542C135.4 158.007 133.627 163.88 131.649 169.201C130.236 173.008 128.732 176.552 127.12 179.705C120.682 192.325 112.904 199.531 105.47 199.517C101.415 199.509 97.2462 197.358 93.2409 193.353C89.9034 190.015 86.6872 185.371 83.7373 179.623C82.1109 176.454 80.5819 172.925 79.149 169.103C77.1583 163.788 75.3889 157.87 73.8959 151.418C73.0153 147.606 72.2344 143.613 71.5649 139.446C70.5605 133.175 69.8471 126.861 69.4269 120.527C69.0944 115.576 68.923 110.617 68.913 105.657C68.904 100.511 69.1078 95.566 69.4141 90.7302C69.8305 84.1326 70.5182 77.8453 71.4502 71.897C72.0975 67.7427 72.8263 63.713 73.6902 59.9144C75.1592 53.4495 76.9372 47.5773 78.9105 42.2556C80.3246 38.4466 81.8319 34.9051 83.4415 31.7495C89.8799 19.1339 97.6575 11.9285 105.092 11.9436L105.091 11.9429Z" fill="#3BABB7" fill-opacity="0.8"/>
<path fill-rule="evenodd" clip-rule="evenodd" d="M149.714 60.3078C145.781 59.5165 141.755 58.8013 137.567 58.2311C133.68 57.7037 129.665 57.3065 125.587 56.9784C119.115 56.4535 112.624 56.192 106.129 56.1948C106.11 56.1956 106.091 56.1929 106.071 56.1936C99.5574 56.2154 93.0464 56.5036 86.5543 57.0573C82.4801 57.4011 78.4704 57.8152 74.5898 58.357C70.3897 58.9454 66.3537 59.6776 62.4123 60.4828C53.7111 62.2591 45.6315 64.5214 38.4245 67.2468C34.6578 68.6714 31.196 70.2477 27.9092 71.8973C11.0064 80.3909 0.728128 91.674 0.704729 104.257C0.679286 116.84 10.9106 128.084 27.7801 136.509C31.0581 138.145 34.5156 139.705 38.2779 141.116C45.4725 143.814 53.5444 146.042 62.2372 147.784C66.1714 148.572 70.1949 149.29 74.3866 149.858C78.2691 150.388 82.2832 150.784 86.3617 151.111C92.8525 151.639 99.3633 151.901 105.878 151.896C112.382 151.882 118.885 151.603 125.369 151.06C129.384 150.718 133.39 150.269 137.382 149.713C141.462 149.138 145.524 148.439 149.563 147.617C158.166 145.875 166.221 143.621 173.537 140.883C175.218 140.255 176.92 139.641 178.518 138.961C180.481 138.127 182.298 137.242 184.097 136.348C191.336 132.751 197.284 128.708 201.694 124.298C207.94 118.052 211.229 111.118 211.244 103.832C211.271 91.2508 201.039 80.0071 184.171 71.5831C180.892 69.946 177.434 68.3857 173.676 66.9736C166.479 64.2786 158.409 62.0476 149.714 60.3078L149.714 60.3078ZM199.762 103.855C199.746 111.426 192.593 119.213 179.907 125.675C177.992 126.65 176.043 127.557 174.065 128.394C172.559 129.034 170.95 129.614 169.365 130.204C163.877 132.25 157.972 134.037 151.648 135.489C147.791 136.374 143.768 137.108 139.667 137.759C133.602 138.723 127.304 139.422 120.825 139.858C115.923 140.185 110.959 140.401 105.901 140.412C100.755 140.421 95.8103 140.217 90.9745 139.911C84.3761 139.495 78.0896 138.807 72.1432 137.878C67.9923 137.228 63.9613 136.498 60.1627 135.635C53.6978 134.165 47.8242 132.391 42.5039 130.413C38.6962 129.001 35.152 127.496 31.9998 125.884C19.3795 119.447 12.1734 111.668 12.1871 104.234C12.1953 100.179 14.3462 96.0105 18.3515 92.0051C21.689 88.6677 26.333 85.4514 32.0814 82.5015C35.2503 80.8751 38.7797 79.3461 42.6019 77.9132C47.9167 75.9225 53.8339 74.1531 60.2866 72.6602C64.0982 71.7795 68.091 70.9986 72.2588 70.3291C78.5299 69.3247 84.8429 68.6113 91.1777 68.1911C96.1281 67.8586 101.087 67.6872 106.048 67.6772C111.194 67.6681 116.138 67.872 120.974 68.1783C127.572 68.5947 133.859 69.2823 139.807 70.2143C143.962 70.8616 147.991 71.5904 151.79 72.4544C158.255 73.9233 164.127 75.7013 169.449 77.6747C173.258 79.0887 176.799 80.596 179.955 82.2056C192.571 88.644 199.776 96.4216 199.761 103.856L199.762 103.855Z" fill="#F8A131" fill-opacity="0.8"/>
<circle cx="105.273" cy="104.303" r="15.6208" fill="#3994E3"/>
</svg>
